<svg id="Camada_1" data-name="Camada 1" xmlns="http://www.w3.org/2000/svg" xmlns:xlink="http://www.w3.org/1999/xlink" viewBox="0 0 60.15 60.15"><defs><style>.cls-1{fill:none;}.cls-2{fill:#ff0;stroke:#000;stroke-miterlimit:10;stroke-width:0.15px;opacity:0.31;}.cls-3{isolation:isolate;}.cls-4{fill:#005;}.cls-5{clip-path:url(#clip-path);}.cls-6{fill:#000058;}.cls-7{fill:#00005c;}.cls-8{fill:#00005f;}.cls-9{fill:#000063;}.cls-10{fill:#006;}.cls-11{clip-path:url(#clip-path-2);}.cls-12{fill:#000070;}.cls-13{fill:#000074;}.cls-14{fill:#00006d;}.cls-15{fill:#000069;}.cls-16{clip-path:url(#clip-path-3);}.cls-17{fill:#00005d;}.cls-18{clip-path:url(#clip-path-4);}.cls-19{clip-path:url(#clip-path-5);}.cls-20{clip-path:url(#clip-path-6);}.cls-21{fill:#000072;}.cls-22{clip-path:url(#clip-path-7);}.cls-23{clip-path:url(#clip-path-8);}.cls-24{clip-path:url(#clip-path-9);}.cls-25{clip-path:url(#clip-path-10);}.cls-26{fill:#000068;}.cls-27{clip-path:url(#clip-path-11);}.cls-28{clip-path:url(#clip-path-12);}.cls-29{clip-path:url(#clip-path-13);}.cls-30{clip-path:url(#clip-path-14);}.cls-31{clip-path:url(#clip-path-15);}.cls-32{clip-path:url(#clip-path-16);}.cls-33{clip-path:url(#clip-path-17);}.cls-34{clip-path:url(#clip-path-18);}.cls-35{clip-path:url(#clip-path-19);}.cls-36{clip-path:url(#clip-path-20);}.cls-37{clip-path:url(#clip-path-21);}.cls-38{clip-path:url(#clip-path-22);}.cls-39{clip-path:url(#clip-path-23);}.cls-40{clip-path:url(#clip-path-24);}.cls-41{clip-path:url(#clip-path-25);}.cls-42{clip-path:url(#clip-path-26);}.cls-43{clip-path:url(#clip-path-27);}.cls-44{clip-path:url(#clip-path-28);}.cls-45{clip-path:url(#clip-path-29);}.cls-46{fill:#000073;}.cls-47{clip-path:url(#clip-path-30);}.cls-48{clip-path:url(#clip-path-31);}.cls-49{clip-path:url(#clip-path-32);}.cls-50{clip-path:url(#clip-path-33);}.cls-51{clip-path:url(#clip-path-34);}.cls-52{clip-path:url(#clip-path-35);}.cls-53{clip-path:url(#clip-path-36);}.cls-54{fill:#000090;}.cls-55{clip-path:url(#clip-path-37);}</style><clipPath id="clip-path" transform="translate(-1.93 -1.93)"><path class="cls-1" d="M11.23,43.66h2.18c-.29.13-.38.87-.44,1.19H10.79C10.85,44.53,10.94,43.79,11.23,43.66Z"/></clipPath><clipPath id="clip-path-2" transform="translate(-1.93 -1.93)"><path class="cls-1" d="M8.89,35.08h2.18a13.65,13.65,0,0,0,2,2.05c.49.4.68.85,1,1.11s.68-.11,1,.74H12.89c-.36-.85-.62-.41-1-.74s-.5-.71-1-1.11A13.65,13.65,0,0,1,8.89,35.08Z"/></clipPath><clipPath id="clip-path-3" transform="translate(-1.93 -1.93)"><path class="cls-1" d="M13.41,38.83h2.17c.18,0,.32.1.42.38s-.55.88-.35,1.47c.3.92,1.49.77,1.91,1.91H15.38c-.42-1.14-1.61-1-1.91-1.91-.2-.59.44-1.19.35-1.47S13.59,38.83,13.41,38.83Z"/></clipPath><clipPath id="clip-path-4" transform="translate(-1.93 -1.93)"><path class="cls-1" d="M19.3,50.44h2.18l-.25,0H19.05Z"/></clipPath><clipPath id="clip-path-5" transform="translate(-1.93 -1.93)"><path class="cls-1" d="M17.5,43.77h2.18a4.89,4.89,0,0,1,2,.89,5.24,5.24,0,0,0,2.1.9H21.61a5.28,5.28,0,0,1-2.11-.9A4.83,4.83,0,0,0,17.5,43.77Z"/></clipPath><clipPath id="clip-path-6" transform="translate(-1.93 -1.93)"><path class="cls-1" d="M21.86,45.52H24a3.3,3.3,0,0,0,1.92,1H23.78A3.33,3.33,0,0,1,21.86,45.52Z"/></clipPath><clipPath id="clip-path-7" transform="translate(-1.93 -1.93)"><path class="cls-1" d="M23.84,16.28h0Z"/></clipPath><clipPath id="clip-path-8" transform="translate(-1.93 -1.93)"><path class="cls-1" d="M24.6,53.88h2.18a1.61,1.61,0,0,0-.46.07H24.15A1.5,1.5,0,0,1,24.6,53.88Z"/></clipPath><clipPath id="clip-path-9" transform="translate(-1.93 -1.93)"><path class="cls-1" d="M24.25,16.29h2.18a4.71,4.71,0,0,0,.61,0H24.86A4.71,4.71,0,0,1,24.25,16.29Z"/></clipPath><clipPath id="clip-path-10" transform="translate(-1.93 -1.93)"><path class="cls-1" d="M24.49,46.87h2.18c.78,0,2.32.49,2.49.89H27C26.81,47.36,25.27,46.87,24.49,46.87Z"/></clipPath><clipPath id="clip-path-11" transform="translate(-1.93 -1.93)"><path class="cls-1" d="M26.45,16.3h2.18a3.4,3.4,0,0,1,1.66.22H28.11A3.4,3.4,0,0,0,26.45,16.3Z"/></clipPath><clipPath id="clip-path-12" transform="translate(-1.93 -1.93)"><path class="cls-1" d="M28.17,47.87h0Z"/></clipPath><clipPath id="clip-path-13" transform="translate(-1.93 -1.93)"><path class="cls-1" d="M28.17,47.86h2.18s0,0,0,0H28.17S28.18,47.86,28.17,47.86Z"/></clipPath><clipPath id="clip-path-14" transform="translate(-1.93 -1.93)"><path class="cls-1" d="M28.41,13.86h2.18l-.22,0H28.19Z"/></clipPath><clipPath id="clip-path-15" transform="translate(-1.93 -1.93)"><path class="cls-1" d="M28.63,18.86h2.18a3.15,3.15,0,0,0-.57.07,4.2,4.2,0,0,1-.62.07H27.44a4.2,4.2,0,0,0,.62-.07A3.15,3.15,0,0,1,28.63,18.86Z"/></clipPath><clipPath id="clip-path-16" transform="translate(-1.93 -1.93)"><path class="cls-1" d="M30.17,8.07h2.18A5.47,5.47,0,0,0,31.1,9H28.92A5.7,5.7,0,0,1,30.17,8.07Z"/></clipPath><clipPath id="clip-path-17" transform="translate(-1.93 -1.93)"><path class="cls-1" d="M28.73,9.22h2.18c.17.63-.12,1.31,0,1.63.57,1.7,1.11,1.34,1.55,2.08H30.27c-.44-.74-1-.38-1.55-2.08C28.61,10.53,28.9,9.85,28.73,9.22Z"/></clipPath><clipPath id="clip-path-18" transform="translate(-1.93 -1.93)"><path class="cls-1" d="M30.92,7.83H33.1a.92.92,0,0,0-.38.07H30.54A.92.92,0,0,1,30.92,7.83Z"/></clipPath><clipPath id="clip-path-19" transform="translate(-1.93 -1.93)"><path class="cls-1" d="M30.75,12.81h2.18a.72.72,0,0,1,.24,0H31A.79.79,0,0,0,30.75,12.81Z"/></clipPath><clipPath id="clip-path-20" transform="translate(-1.93 -1.93)"><path class="cls-1" d="M31,12.86h2.17a.56.56,0,0,0,.23.05H31.22A.48.48,0,0,1,31,12.86Z"/></clipPath><clipPath id="clip-path-21" transform="translate(-1.93 -1.93)"><path class="cls-1" d="M30.69,5.59h2.18a.54.54,0,0,1,.33.16.68.68,0,0,0,.43.17H31.45A.68.68,0,0,1,31,5.75.54.54,0,0,0,30.69,5.59Z"/></clipPath><clipPath id="clip-path-22" transform="translate(-1.93 -1.93)"><path class="cls-1" d="M32.67,55.44h2.18c-.39.69-1.25,2.7-1.81,3H30.86C31.42,58.14,32.28,56.13,32.67,55.44Z"/></clipPath><clipPath id="clip-path-23" transform="translate(-1.93 -1.93)"><path class="cls-1" d="M32.56,26.65h2.17c-.06,1.35-.3,5.47.13,6.75H32.68C32.25,32.12,32.49,28,32.56,26.65Z"/></clipPath><clipPath id="clip-path-24" transform="translate(-1.93 -1.93)"><path class="cls-1" d="M32.6,35.63h2.18c.17.94-.05,3.87,0,5,0,1.39-.39,3.33.17,5H32.73c-.56-1.68-.13-3.62-.17-5C32.55,39.5,32.77,36.57,32.6,35.63Z"/></clipPath><clipPath id="clip-path-25" transform="translate(-1.93 -1.93)"><path class="cls-1" d="M32.49,19.93h2.18c.4,1.18-.12,2.58-.08,3.35a14.44,14.44,0,0,1,.2,1.75c0,.56,0,1.06-.06,1.62H32.56c0-.56,0-1.06,0-1.62a14.44,14.44,0,0,0-.2-1.75C32.38,22.51,32.9,21.11,32.49,19.93Z"/></clipPath><clipPath id="clip-path-26" transform="translate(-1.93 -1.93)"><path class="cls-1" d="M33,47.67h0Z"/></clipPath><clipPath id="clip-path-27" transform="translate(-1.93 -1.93)"><path class="cls-1" d="M33.33,19.05h2.18a1.5,1.5,0,0,0-.84.88H32.49A1.5,1.5,0,0,1,33.33,19.05Z"/></clipPath><clipPath id="clip-path-28" transform="translate(-1.93 -1.93)"><path class="cls-1" d="M33.22,47.67h0Z"/></clipPath><clipPath id="clip-path-29" transform="translate(-1.93 -1.93)"><path class="cls-1" d="M31.94,5.8h2.18c.57.9,1.05-.21,1.59,1.39H33.53C33,5.59,32.51,6.7,31.94,5.8Z"/></clipPath><clipPath id="clip-path-30" transform="translate(-1.93 -1.93)"><path class="cls-1" d="M32.46,14.41h2.18c.17.66,0,.79.22,1.5.13.37,1.57.52,1.9.61H34.58c-.33-.09-1.77-.24-1.9-.61C32.44,15.2,32.63,15.07,32.46,14.41Z"/></clipPath><clipPath id="clip-path-31" transform="translate(-1.93 -1.93)"><path class="cls-1" d="M34.83,9.38H37a15.27,15.27,0,0,1,0,2.34,11.71,11.71,0,0,1-1,1.86H33.86a11.71,11.71,0,0,0,1-1.86A15.27,15.27,0,0,0,34.83,9.38Z"/></clipPath><clipPath id="clip-path-32" transform="translate(-1.93 -1.93)"><path class="cls-1" d="M35.07,18.79h2.18a4.53,4.53,0,0,0-1.74.26H33.33A4.53,4.53,0,0,1,35.07,18.79Z"/></clipPath><clipPath id="clip-path-33" transform="translate(-1.93 -1.93)"><path class="cls-1" d="M38.78,16.22H41a25.16,25.16,0,0,1,3.34.13H42.12A25.16,25.16,0,0,0,38.78,16.22Z"/></clipPath><clipPath id="clip-path-34" transform="translate(-1.93 -1.93)"><path class="cls-1" d="M42.23,18.76h2.18a5.49,5.49,0,0,1-2.16.33H40.08A5.46,5.46,0,0,0,42.23,18.76Z"/></clipPath><clipPath id="clip-path-35" transform="translate(-1.93 -1.93)"><path class="cls-1" d="M42.12,16.35H44.3c.27.8-.12,1.48.11,2.41H42.23C42,17.83,42.39,17.15,42.12,16.35Z"/></clipPath><clipPath id="clip-path-36" transform="translate(-1.93 -1.93)"><path class="cls-1" d="M49.83,43.72H52a10.28,10.28,0,0,0-1.41,1.52c-.6,1-.46.65-1.33,1.43-.53.48-2.68,2.36-2.77,2.83H44.32c.09-.47,2.24-2.35,2.77-2.83.87-.78.73-.45,1.33-1.43A10.28,10.28,0,0,1,49.83,43.72Z"/></clipPath><clipPath id="clip-path-37" transform="translate(-1.93 -1.93)"><path class="cls-1" d="M53,34.91h2.18c.15,1.2.27,3.79-.29,4.55H52.75C53.31,38.7,53.19,36.11,53,34.91Z"/></clipPath></defs><title>favicon</title><circle class="cls-2" cx="30.07" cy="30.07" r="30"/><g id="path46"><g class="cls-3"><polygon class="cls-4" points="8.86 42.92 11.04 42.92 10.34 43.34 8.16 43.34 8.86 42.92"/><g class="cls-3"><g class="cls-5"><g class="cls-3"><path class="cls-6" d="M11.23,43.66h2.18a.48.48,0,0,0-.15.14H11.08a.48.48,0,0,1,.15-.14" transform="translate(-1.93 -1.93)"/><path class="cls-7" d="M11.08,43.8h2.18l-.06.12H11a.67.67,0,0,1,.06-.12" transform="translate(-1.93 -1.93)"/><path class="cls-8" d="M11,43.92H13.2a1.19,1.19,0,0,0-.08.2H10.94c0-.07.05-.14.08-.2" transform="translate(-1.93 -1.93)"/><path class="cls-9" d="M10.94,44.12h2.18c0,.18-.09.38-.12.54H10.82c0-.16.07-.36.12-.54" transform="translate(-1.93 -1.93)"/><path class="cls-10" d="M10.82,44.66H13v.08H10.81v-.08" transform="translate(-1.93 -1.93)"/><path class="cls-9" d="M10.81,44.74H13a.52.52,0,0,0,0,.11H10.79a.52.52,0,0,1,0-.11" transform="translate(-1.93 -1.93)"/></g></g></g><polygon class="cls-4" points="9.85 41.57 12.03 41.57 11.49 41.73 9.31 41.73 9.85 41.57"/><g class="cls-3"><g class="cls-11"><g class="cls-3"><path class="cls-12" d="M8.89,35.08h2.18v0H8.9v0" transform="translate(-1.93 -1.93)"/><path class="cls-13" d="M8.9,35.1h2.18a6.1,6.1,0,0,0,.85,1H9.75a6.1,6.1,0,0,1-.85-1" transform="translate(-1.93 -1.93)"/><path class="cls-12" d="M9.75,36.09h2.18c.45.45.93.9,1.11,1l.23.21H11.09l-.23-.21c-.18-.14-.66-.59-1.11-1" transform="translate(-1.93 -1.93)"/><path class="cls-13" d="M11.09,37.34h2.18c.29.3.46.6.67.81H11.76c-.21-.21-.38-.51-.67-.81" transform="translate(-1.93 -1.93)"/><path class="cls-12" d="M11.76,38.15h2.18l.09.09.07,0H11.92l-.07,0-.09-.09" transform="translate(-1.93 -1.93)"/><path class="cls-14" d="M11.92,38.29H14.1l.09.05H12l-.09-.05" transform="translate(-1.93 -1.93)"/><path class="cls-15" d="M12,38.34h2.18l.08,0H12.09l-.08,0" transform="translate(-1.93 -1.93)"/><path class="cls-10" d="M12.09,38.37h2.18l.1,0H12.19l-.1,0" transform="translate(-1.93 -1.93)"/><path class="cls-9" d="M12.19,38.39h2.18l.14,0H12.33l-.14,0" transform="translate(-1.93 -1.93)"/><path class="cls-10" d="M12.33,38.41h2.18l.09,0H12.42l-.09,0" transform="translate(-1.93 -1.93)"/><path class="cls-15" d="M12.42,38.43H14.6l.06,0H12.48l-.06,0" transform="translate(-1.93 -1.93)"/><path class="cls-14" d="M12.48,38.45h2.18l.06,0H12.55l-.07,0" transform="translate(-1.93 -1.93)"/><path class="cls-12" d="M12.55,38.48h2.17a.25.25,0,0,1,.1.08H12.64a.32.32,0,0,0-.09-.08" transform="translate(-1.93 -1.93)"/><path class="cls-13" d="M12.64,38.56h2.18a.9.9,0,0,1,.19.29H12.83a.9.9,0,0,0-.19-.29" transform="translate(-1.93 -1.93)"/><path class="cls-12" d="M12.83,38.85H15l.06.13H12.89l-.06-.13" transform="translate(-1.93 -1.93)"/></g></g></g><g class="cls-3"><g class="cls-16"><g class="cls-3"><path class="cls-8" d="M13.41,38.83h0" transform="translate(-1.93 -1.93)"/><path class="cls-9" d="M13.42,38.83h0" transform="translate(-1.93 -1.93)"/><path class="cls-10" d="M13.47,38.84h0" transform="translate(-1.93 -1.93)"/><path class="cls-15" d="M13.51,38.85h0" transform="translate(-1.93 -1.93)"/><path class="cls-14" d="M13.55,38.86h2.18l0,0H13.6l0,0" transform="translate(-1.93 -1.93)"/><path class="cls-12" d="M13.6,38.88h2.18l.06.06H13.66l-.06-.06" transform="translate(-1.93 -1.93)"/><path class="cls-13" d="M13.66,38.94h2.18a.5.5,0,0,1,.1.14H13.76a.5.5,0,0,0-.1-.14" transform="translate(-1.93 -1.93)"/><path class="cls-12" d="M13.76,39.08h2.18l.06.13v0H13.82v0l-.06-.13" transform="translate(-1.93 -1.93)"/><path class="cls-14" d="M13.82,39.23H16v0H13.82v0" transform="translate(-1.93 -1.93)"/><path class="cls-15" d="M13.82,39.26H16v0H13.83a0,0,0,0,0,0,0" transform="translate(-1.93 -1.93)"/><path class="cls-10" d="M13.83,39.29H16v0H13.82a.06.06,0,0,1,0,0" transform="translate(-1.93 -1.93)"/><path class="cls-9" d="M13.82,39.33H16a.14.14,0,0,1,0,.06H13.8a.14.14,0,0,0,0-.06" transform="translate(-1.93 -1.93)"/><path class="cls-8" d="M13.8,39.39H16a.78.78,0,0,1-.05.14H13.75a.78.78,0,0,0,.05-.14" transform="translate(-1.93 -1.93)"/><path class="cls-7" d="M13.75,39.53h2.18l-.17.34H13.58l.17-.34" transform="translate(-1.93 -1.93)"/><path class="cls-8" d="M13.58,39.87h2.18a2.6,2.6,0,0,0-.1.25H13.48l.1-.25" transform="translate(-1.93 -1.93)"/><path class="cls-9" d="M13.48,40.12h2.18c0,.05,0,.1,0,.15H13.44c0-.05,0-.1,0-.15" transform="translate(-1.93 -1.93)"/><path class="cls-10" d="M13.44,40.27h2.18s0,.08,0,.12H13.43s0-.08,0-.12" transform="translate(-1.93 -1.93)"/><path class="cls-15" d="M13.43,40.39h2.18v.11H13.43v-.11" transform="translate(-1.93 -1.93)"/><path class="cls-14" d="M13.43,40.5h2.18a.36.36,0,0,0,0,.11H13.45a.36.36,0,0,1,0-.11" transform="translate(-1.93 -1.93)"/><path class="cls-12" d="M13.45,40.61h2.18a.14.14,0,0,0,0,.07.47.47,0,0,0,.06.15H13.53a.94.94,0,0,1-.06-.15.14.14,0,0,1,0-.07" transform="translate(-1.93 -1.93)"/><path class="cls-13" d="M13.53,40.83h2.18a1,1,0,0,0,.2.28H13.73a1,1,0,0,1-.2-.28" transform="translate(-1.93 -1.93)"/><path class="cls-12" d="M13.73,41.11h2.18a1.8,1.8,0,0,0,.34.26H14.07a2.18,2.18,0,0,1-.34-.26" transform="translate(-1.93 -1.93)"/><path class="cls-14" d="M14.07,41.37h2.18c.17.11.35.2.53.31H14.6c-.18-.11-.36-.2-.53-.31" transform="translate(-1.93 -1.93)"/><path class="cls-12" d="M14.6,41.68h2.18a2.12,2.12,0,0,1,.41.33H15a1.86,1.86,0,0,0-.41-.33" transform="translate(-1.93 -1.93)"/><path class="cls-13" d="M15,42h2.18a1.53,1.53,0,0,1,.29.4H15.3A1.53,1.53,0,0,0,15,42" transform="translate(-1.93 -1.93)"/><path class="cls-12" d="M15.3,42.41h2.18a1.59,1.59,0,0,1,.08.18H15.38a1.59,1.59,0,0,0-.08-.18" transform="translate(-1.93 -1.93)"/></g></g></g><polygon class="cls-17" points="15.61 41.69 17.79 41.69 17.72 41.84 15.54 41.84 15.61 41.69"/><polygon class="cls-12" points="13.95 40.44 16.12 40.44 17.79 41.69 15.61 41.69 13.95 40.44"/><g class="cls-3"><g class="cls-18"><g class="cls-3"><path class="cls-6" d="M19.3,50.44h2.18l-.25,0H19.05l.25,0" transform="translate(-1.93 -1.93)"/></g></g></g><g class="cls-3"><g class="cls-19"><g class="cls-3"><path class="cls-8" d="M17.5,43.77h0" transform="translate(-1.93 -1.93)"/><path class="cls-9" d="M17.53,43.77h0" transform="translate(-1.93 -1.93)"/><path class="cls-10" d="M17.68,43.78h2.18l.2,0H17.88l-.2,0" transform="translate(-1.93 -1.93)"/><path class="cls-15" d="M17.88,43.83h2.18l.34.12H18.22l-.34-.12" transform="translate(-1.93 -1.93)"/><path class="cls-14" d="M18.22,44H20.4a11.29,11.29,0,0,1,1.28.71,10.61,10.61,0,0,0,1.27.68H20.77a10.61,10.61,0,0,1-1.27-.68A11.29,11.29,0,0,0,18.22,44" transform="translate(-1.93 -1.93)"/><path class="cls-15" d="M20.77,45.34H23a1.87,1.87,0,0,0,.41.15H21.19a1.94,1.94,0,0,1-.42-.15" transform="translate(-1.93 -1.93)"/><path class="cls-10" d="M21.19,45.49h2.17l.23.06H21.42a1.55,1.55,0,0,1-.23-.06" transform="translate(-1.93 -1.93)"/><path class="cls-9" d="M21.42,45.55h0" transform="translate(-1.93 -1.93)"/><path class="cls-8" d="M21.57,45.56h0" transform="translate(-1.93 -1.93)"/></g></g></g><g class="cls-3"><g class="cls-20"><g class="cls-3"><path class="cls-13" d="M21.86,45.52H24a.41.41,0,0,0,.09.1H22a.41.41,0,0,1-.09-.1" transform="translate(-1.93 -1.93)"/><path class="cls-12" d="M22,45.62h2.18a2.9,2.9,0,0,0,.57.44H22.52a2.9,2.9,0,0,1-.57-.44" transform="translate(-1.93 -1.93)"/><path class="cls-14" d="M22.52,46.06H24.7a3.5,3.5,0,0,0,.54.29H23.06a3.5,3.5,0,0,1-.54-.29" transform="translate(-1.93 -1.93)"/><path class="cls-15" d="M23.06,46.35h2.18l.33.12H23.39l-.33-.12" transform="translate(-1.93 -1.93)"/><path class="cls-10" d="M23.39,46.47h2.18l.21.05H23.6l-.21-.05" transform="translate(-1.93 -1.93)"/><path class="cls-9" d="M23.6,46.52h0" transform="translate(-1.93 -1.93)"/><path class="cls-8" d="M23.75,46.53h0" transform="translate(-1.93 -1.93)"/></g></g></g><polygon class="cls-21" points="22.09 44.57 24.27 44.57 24.42 44.99 22.24 44.99 22.09 44.57"/><g class="cls-3"><g class="cls-22"><g class="cls-3"><path class="cls-8" d="M23.84,16.28h0" transform="translate(-1.93 -1.93)"/><path class="cls-9" d="M24.15,16.28h0" transform="translate(-1.93 -1.93)"/></g></g></g><g class="cls-3"><g class="cls-23"><g class="cls-3"><path class="cls-6" d="M24.6,53.88h2.18a1.61,1.61,0,0,0-.46.07H24.15a1.5,1.5,0,0,1,.45-.07" transform="translate(-1.93 -1.93)"/></g></g></g><g class="cls-3"><g class="cls-24"><g class="cls-3"><path class="cls-10" d="M24.25,16.29h0" transform="translate(-1.93 -1.93)"/><path class="cls-9" d="M24.28,16.29h2.18a1.48,1.48,0,0,0,.33,0H24.61a1.48,1.48,0,0,1-.33,0" transform="translate(-1.93 -1.93)"/><path class="cls-8" d="M24.61,16.32h0" transform="translate(-1.93 -1.93)"/></g></g></g><polygon class="cls-4" points="24.68 17.25 26.86 17.25 23.25 17.27 21.07 17.27 24.68 17.25"/><g class="cls-3"><g class="cls-25"><g class="cls-3"><path class="cls-8" d="M24.49,46.87h0" transform="translate(-1.93 -1.93)"/><path class="cls-9" d="M24.55,46.87h2.18a2.87,2.87,0,0,1,.39,0H25a3.18,3.18,0,0,0-.4,0" transform="translate(-1.93 -1.93)"/><path class="cls-10" d="M25,46.91h2.17a6.12,6.12,0,0,1,.69.15H25.63a6.47,6.47,0,0,0-.68-.15" transform="translate(-1.93 -1.93)"/><path class="cls-15" d="M25.63,47.06h2.18a6.19,6.19,0,0,1,.69.24H26.32a6.19,6.19,0,0,0-.69-.24" transform="translate(-1.93 -1.93)"/><path class="cls-14" d="M26.32,47.3H28.5a2.69,2.69,0,0,1,.38.2H26.7a2.69,2.69,0,0,0-.38-.2" transform="translate(-1.93 -1.93)"/><path class="cls-12" d="M26.7,47.5h2.18a1.15,1.15,0,0,1,.2.15H26.9a1.15,1.15,0,0,0-.2-.15" transform="translate(-1.93 -1.93)"/><path class="cls-13" d="M26.9,47.65h2.18l.06.08H27l-.06-.08" transform="translate(-1.93 -1.93)"/><path class="cls-12" d="M27,47.73h2.18l0,0H27l0,0" transform="translate(-1.93 -1.93)"/></g></g></g><polygon class="cls-4" points="25.17 17.03 27.35 17.03 26.86 17.25 24.68 17.25 25.17 17.03"/><polygon class="cls-26" points="25.11 45.65 27.29 45.65 28.36 46.01 26.18 46.01 25.11 45.65"/><g class="cls-3"><g class="cls-27"><g class="cls-3"><path class="cls-8" d="M26.45,16.3h0" transform="translate(-1.93 -1.93)"/><path class="cls-9" d="M26.94,16.31h2.18a5,5,0,0,1,.72.05H27.66a5,5,0,0,0-.72-.05" transform="translate(-1.93 -1.93)"/><path class="cls-10" d="M27.66,16.36h2.18l.22.05H27.88l-.22-.05" transform="translate(-1.93 -1.93)"/><path class="cls-15" d="M27.88,16.41h2.18l.11,0H28l-.11,0" transform="translate(-1.93 -1.93)"/><path class="cls-14" d="M28,16.44h2.18l.06,0H28.05l-.06,0" transform="translate(-1.93 -1.93)"/><path class="cls-12" d="M28.05,16.48h2.18a.1.1,0,0,1,.05,0H28.1a.1.1,0,0,0-.05,0" transform="translate(-1.93 -1.93)"/><polyline class="cls-13" points="26.18 14.59 28.36 14.59 28.36 14.6 26.18 14.6 26.18 14.59"/></g></g></g><g class="cls-3"><g class="cls-28"><g class="cls-3"><path class="cls-6" d="M28.17,47.87h0" transform="translate(-1.93 -1.93)"/></g></g></g><path class="cls-4" d="M28.17,47.86s0,0,0,0h0s0,0,0,0Z" transform="translate(-1.93 -1.93)"/><g class="cls-3"><g class="cls-29"><g class="cls-3"><polyline class="cls-8" points="26.25 45.93 28.43 45.93 28.43 45.93 26.25 45.93 26.25 45.93"/><polyline class="cls-9" points="26.25 45.93 28.43 45.93 28.43 45.93 26.25 45.93 26.25 45.93"/><polyline class="cls-10" points="26.25 45.93 28.43 45.93 28.43 45.93 26.25 45.93 26.25 45.93"/><polyline class="cls-15" points="26.25 45.93 28.43 45.93 28.43 45.93 26.25 45.93 26.25 45.93"/><polyline class="cls-14" points="26.25 45.93 28.43 45.93 28.43 45.93 26.25 45.93 26.25 45.93"/><polyline class="cls-12" points="26.25 45.93 28.43 45.93 28.43 45.93 26.25 45.93 26.25 45.93"/><polyline class="cls-13" points="26.25 45.93 28.43 45.93 28.43 45.93 26.25 45.93 26.25 45.93"/><polyline class="cls-12" points="26.25 45.93 28.43 45.93 28.43 45.93 26.25 45.93 26.25 45.93"/><polyline class="cls-14" points="26.25 45.93 28.43 45.93 28.43 45.94 26.25 45.94 26.25 45.93"/><polyline class="cls-15" points="26.25 45.94 28.43 45.94 28.43 45.94 26.25 45.94 26.25 45.94"/><polyline class="cls-10" points="26.25 45.94 28.43 45.94 28.43 45.94 26.25 45.94 26.25 45.94"/><polyline class="cls-9" points="26.25 45.94 28.43 45.94 28.43 45.94 26.25 45.94 26.25 45.94"/><polyline class="cls-8" points="26.25 45.94 28.43 45.94 28.43 45.94 26.25 45.94 26.25 45.94"/><polyline class="cls-7" points="26.25 45.94 28.43 45.94 28.43 45.95 26.25 45.95 26.25 45.94"/></g></g></g><g class="cls-3"><g class="cls-30"><g class="cls-3"><path class="cls-6" d="M28.41,13.86h2.18l-.22,0H28.19l.22,0" transform="translate(-1.93 -1.93)"/></g></g></g><polygon class="cls-21" points="26.42 6.98 28.59 6.98 28.74 7.4 26.56 7.4 26.42 6.98"/><g class="cls-3"><g class="cls-31"><g class="cls-3"><path class="cls-6" d="M28.63,18.86h2.18a3.15,3.15,0,0,0-.57.07,4.2,4.2,0,0,1-.62.07H27.44a4.2,4.2,0,0,0,.62-.07,3.15,3.15,0,0,1,.57-.07" transform="translate(-1.93 -1.93)"/></g></g></g><polygon class="cls-21" points="26.83 45.68 29.01 45.68 29.11 45.96 26.93 45.96 26.83 45.68"/><g class="cls-3"><g class="cls-32"><g class="cls-3"><path class="cls-6" d="M30.17,8.07h2.18A5.47,5.47,0,0,0,31.1,9H28.92a5.7,5.7,0,0,1,1.25-.89" transform="translate(-1.93 -1.93)"/></g></g></g><g class="cls-3"><g class="cls-33"><g class="cls-3"><path class="cls-12" d="M28.73,9.22h2.18v0H28.74v0" transform="translate(-1.93 -1.93)"/><path class="cls-14" d="M28.74,9.27h2.18a2.17,2.17,0,0,1,0,.25H28.78a2.17,2.17,0,0,0,0-.25" transform="translate(-1.93 -1.93)"/><path class="cls-15" d="M28.78,9.52H31v.31H28.78V9.52" transform="translate(-1.93 -1.93)"/><path class="cls-10" d="M28.78,9.83H31c0,.28-.07.55-.09.76H28.7c0-.21.06-.48.08-.76" transform="translate(-1.93 -1.93)"/><path class="cls-15" d="M28.7,10.59h2.17v.14H28.7a.33.33,0,0,1,0-.14" transform="translate(-1.93 -1.93)"/><path class="cls-14" d="M28.7,10.73h2.17s0,.06,0,.09H28.71a.28.28,0,0,1,0-.09" transform="translate(-1.93 -1.93)"/><path class="cls-12" d="M28.71,10.82h2.18a0,0,0,0,0,0,0,4.85,4.85,0,0,0,.26.65H29a4.85,4.85,0,0,1-.26-.65,0,0,0,0,1,0,0" transform="translate(-1.93 -1.93)"/><path class="cls-13" d="M29,11.5h2.18a2.2,2.2,0,0,0,.42.62H29.4A2.2,2.2,0,0,1,29,11.5" transform="translate(-1.93 -1.93)"/><path class="cls-12" d="M29.4,12.12h2.18c.23.24.45.33.66.54H30.06c-.21-.21-.43-.3-.66-.54" transform="translate(-1.93 -1.93)"/><path class="cls-13" d="M30.06,12.66h2.18a1.59,1.59,0,0,1,.21.27H30.27a1.59,1.59,0,0,0-.21-.27" transform="translate(-1.93 -1.93)"/></g></g></g><polygon class="cls-4" points="28.61 5.98 30.79 5.98 30.42 6.15 28.25 6.15 28.61 5.98"/><g class="cls-3"><g class="cls-34"><g class="cls-3"><path class="cls-6" d="M30.92,7.83H33.1a.92.92,0,0,0-.38.07H30.54a.92.92,0,0,1,.38-.07" transform="translate(-1.93 -1.93)"/></g></g></g><g class="cls-3"><g class="cls-35"><g class="cls-3"><path class="cls-8" d="M30.75,12.81h0" transform="translate(-1.93 -1.93)"/><path class="cls-9" d="M30.77,12.81h0" transform="translate(-1.93 -1.93)"/><path class="cls-10" d="M30.84,12.82h0" transform="translate(-1.93 -1.93)"/><path class="cls-15" d="M30.91,12.83h2.18l.08,0H31l-.09,0" transform="translate(-1.93 -1.93)"/></g></g></g><g class="cls-3"><g class="cls-36"><g class="cls-3"><path class="cls-15" d="M31,12.86h2.17l.1,0H31.09l-.09,0" transform="translate(-1.93 -1.93)"/><path class="cls-10" d="M31.09,12.9h0" transform="translate(-1.93 -1.93)"/><path class="cls-9" d="M31.15,12.91h0" transform="translate(-1.93 -1.93)"/><path class="cls-8" d="M31.21,12.91h0" transform="translate(-1.93 -1.93)"/></g></g></g><g class="cls-3"><g class="cls-37"><g class="cls-3"><polyline class="cls-8" points="28.76 3.66 30.94 3.66 30.95 3.66 28.77 3.66 28.76 3.66"/><path class="cls-9" d="M30.7,5.59h0" transform="translate(-1.93 -1.93)"/><path class="cls-10" d="M30.74,5.59h0" transform="translate(-1.93 -1.93)"/><path class="cls-15" d="M30.78,5.6H33l0,0H30.82l0,0" transform="translate(-1.93 -1.93)"/><path class="cls-14" d="M30.82,5.62H33l.07,0H30.89l-.07,0" transform="translate(-1.93 -1.93)"/><path class="cls-12" d="M30.89,5.65h2.18l.13.1.1.07H31.12L31,5.75l-.13-.1" transform="translate(-1.93 -1.93)"/><path class="cls-14" d="M31.12,5.82H33.3l.09,0H31.21l-.09,0" transform="translate(-1.93 -1.93)"/><path class="cls-15" d="M31.21,5.87h2.18l.07,0H31.28l-.07,0" transform="translate(-1.93 -1.93)"/><path class="cls-10" d="M31.28,5.89h2.18l.07,0H31.35l-.07,0" transform="translate(-1.93 -1.93)"/><path class="cls-9" d="M31.35,5.91h0" transform="translate(-1.93 -1.93)"/><path class="cls-8" d="M31.43,5.92h0" transform="translate(-1.93 -1.93)"/></g></g></g><g class="cls-3"><g class="cls-38"><g class="cls-3"><path class="cls-7" d="M32.67,55.44h2.18c-.29.5-.82,1.71-1.31,2.43H31.37c.48-.72,1-1.93,1.3-2.43" transform="translate(-1.93 -1.93)"/><path class="cls-6" d="M31.37,57.87h2.17a1.56,1.56,0,0,1-.5.54H30.86a1.67,1.67,0,0,0,.51-.54" transform="translate(-1.93 -1.93)"/></g></g></g><g class="cls-3"><g class="cls-39"><g class="cls-3"><path class="cls-15" d="M32.56,26.65h2.17c0,1-.2,3.73-.07,5.5H32.48a52.43,52.43,0,0,1,.08-5.5" transform="translate(-1.93 -1.93)"/><path class="cls-14" d="M32.48,32.15h2.18a7.62,7.62,0,0,0,.13,1H32.62a6.15,6.15,0,0,1-.14-1" transform="translate(-1.93 -1.93)"/><path class="cls-12" d="M32.62,33.16h2.17c0,.09.05.17.07.24H32.68q0-.1-.06-.24" transform="translate(-1.93 -1.93)"/></g></g></g><polygon class="cls-15" points="30.76 31.47 32.94 31.47 32.85 33.71 30.68 33.71 30.76 31.47"/><polygon class="cls-10" points="30.81 43.7 32.99 43.7 32.67 45.78 30.49 45.78 30.81 43.7"/><g class="cls-3"><g class="cls-40"><g class="cls-3"><path class="cls-14" d="M32.6,35.63h2.18a2.84,2.84,0,0,1,0,.35H32.64a2.84,2.84,0,0,0,0-.35" transform="translate(-1.93 -1.93)"/><path class="cls-15" d="M32.64,36h2.18c.09,1.17-.09,3.63-.08,4.64a8.1,8.1,0,0,1,0,.84H32.54a8.1,8.1,0,0,0,0-.84c0-1,.17-3.47.08-4.64" transform="translate(-1.93 -1.93)"/><path class="cls-10" d="M32.54,41.46h2.18c0,.37,0,.77-.07,1.18H32.47c0-.41.05-.81.07-1.18" transform="translate(-1.93 -1.93)"/><path class="cls-15" d="M32.47,42.64h2.18a11.73,11.73,0,0,0,0,1.57H32.46a13.68,13.68,0,0,1,0-1.57" transform="translate(-1.93 -1.93)"/><path class="cls-14" d="M32.46,44.21h2.18a7.5,7.5,0,0,0,.14.95H32.6a7.5,7.5,0,0,1-.14-.95" transform="translate(-1.93 -1.93)"/><path class="cls-12" d="M32.6,45.16h2.18c0,.16.08.32.13.47H32.73c0-.15-.09-.31-.13-.47" transform="translate(-1.93 -1.93)"/></g></g></g><g class="cls-3"><g class="cls-41"><g class="cls-3"><path class="cls-12" d="M32.49,19.93h2.18a2,2,0,0,1,.07.26H32.57a2,2,0,0,0-.08-.26" transform="translate(-1.93 -1.93)"/><path class="cls-14" d="M32.57,20.19h2.17a2.42,2.42,0,0,1,.07.47H32.64c0-.16,0-.32-.07-.47" transform="translate(-1.93 -1.93)"/><path class="cls-15" d="M32.64,20.66h2.17a3.88,3.88,0,0,1,0,.59H32.64a5.81,5.81,0,0,0,0-.59" transform="translate(-1.93 -1.93)"/><path class="cls-10" d="M32.64,21.25h2.18c0,.68-.2,1.33-.23,1.82H32.41c0-.49.19-1.14.23-1.82" transform="translate(-1.93 -1.93)"/><path class="cls-15" d="M32.41,23.07h2.18v.21a.53.53,0,0,0,0,.13H32.42s0-.08,0-.13v-.21" transform="translate(-1.93 -1.93)"/><path class="cls-14" d="M32.42,23.41H34.6c0,.47.14.69.18,1.17H32.6c0-.48-.15-.7-.18-1.17" transform="translate(-1.93 -1.93)"/><path class="cls-15" d="M32.6,24.58h2.18c0,.13,0,.28,0,.45,0,.5,0,.95,0,1.44H32.57c0-.49,0-.94,0-1.44,0-.17,0-.32,0-.45" transform="translate(-1.93 -1.93)"/><path class="cls-10" d="M32.57,26.47h2.17a1.09,1.09,0,0,1,0,.18H32.56a1.09,1.09,0,0,1,0-.18" transform="translate(-1.93 -1.93)"/></g></g></g><g class="cls-3"><g class="cls-42"><g class="cls-3"><path class="cls-8" d="M33,47.67h0" transform="translate(-1.93 -1.93)"/></g></g></g><g class="cls-3"><g class="cls-43"><g class="cls-3"><path class="cls-6" d="M33.33,19.05h2.18a1.37,1.37,0,0,0-.62.49H32.71a1.37,1.37,0,0,1,.62-.49" transform="translate(-1.93 -1.93)"/><path class="cls-7" d="M32.71,19.54h2.18c-.08.12-.14.25-.22.39H32.49c.08-.14.14-.27.22-.39" transform="translate(-1.93 -1.93)"/></g></g></g><g class="cls-3"><g class="cls-44"><g class="cls-3"><path class="cls-8" d="M33.22,47.67h0" transform="translate(-1.93 -1.93)"/></g></g></g><g class="cls-3"><g class="cls-45"><g class="cls-3"><path class="cls-13" d="M31.94,5.8h2.18a1,1,0,0,0,.15.19H32.09a1,1,0,0,1-.15-.19" transform="translate(-1.93 -1.93)"/><path class="cls-12" d="M32.09,6h2.18a.53.53,0,0,0,.14.12H32.23A.75.75,0,0,1,32.09,6" transform="translate(-1.93 -1.93)"/><path class="cls-14" d="M32.23,6.11h2.18l.08,0H32.31l-.08,0" transform="translate(-1.93 -1.93)"/><path class="cls-15" d="M32.31,6.15h2.18l.08,0H32.4l-.09,0" transform="translate(-1.93 -1.93)"/><path class="cls-10" d="M32.4,6.18h2.17l.11,0H32.5l-.1,0" transform="translate(-1.93 -1.93)"/><path class="cls-9" d="M32.5,6.2h2.18l.26,0H32.76l-.26,0" transform="translate(-1.93 -1.93)"/><path class="cls-10" d="M32.76,6.23h2.18l.1,0H32.86l-.1,0" transform="translate(-1.93 -1.93)"/><path class="cls-15" d="M32.86,6.25H35l.07,0H32.93l-.07,0" transform="translate(-1.93 -1.93)"/><path class="cls-14" d="M32.93,6.28h2.18a.2.2,0,0,1,.08,0H33a.2.2,0,0,0-.08,0" transform="translate(-1.93 -1.93)"/><path class="cls-12" d="M33,6.32h2.18l.12.1H33.13L33,6.32" transform="translate(-1.93 -1.93)"/><path class="cls-13" d="M33.13,6.42h2.18a1.24,1.24,0,0,1,.23.34H33.36a1.24,1.24,0,0,0-.23-.34" transform="translate(-1.93 -1.93)"/><path class="cls-12" d="M33.36,6.76h2.18c.05.11.11.26.17.43H33.53a3.21,3.21,0,0,0-.17-.43" transform="translate(-1.93 -1.93)"/></g></g></g><polygon class="cls-4" points="31.94 11.66 34.12 11.66 32.71 12.48 30.53 12.48 31.94 11.66"/><polygon class="cls-46" points="31.61 5.27 33.79 5.27 34.49 5.99 32.31 5.99 31.61 5.27"/><g class="cls-3"><g class="cls-47"><g class="cls-3"><path class="cls-12" d="M32.46,14.41h2.18s0,.05,0,.08H32.48a.24.24,0,0,1,0-.08" transform="translate(-1.93 -1.93)"/><path class="cls-14" d="M32.48,14.49h2.17a1.88,1.88,0,0,1,.06.37H32.53a2.93,2.93,0,0,0-.05-.37" transform="translate(-1.93 -1.93)"/><path class="cls-15" d="M32.53,14.86h2.18c0,.16,0,.29,0,.45H32.55c0-.16,0-.29,0-.45" transform="translate(-1.93 -1.93)"/><path class="cls-14" d="M32.55,15.31h2.18a1.32,1.32,0,0,0,.05.31H32.6a2.19,2.19,0,0,1-.05-.31" transform="translate(-1.93 -1.93)"/><path class="cls-12" d="M32.6,15.62h2.18a1.28,1.28,0,0,0,.08.29.08.08,0,0,0,0,0H32.7s0,0,0,0a2.16,2.16,0,0,1-.08-.29" transform="translate(-1.93 -1.93)"/><path class="cls-13" d="M32.7,16h2.18l0,0H32.73l0,0" transform="translate(-1.93 -1.93)"/><path class="cls-12" d="M32.73,16h2.18a.39.39,0,0,0,.1.08H32.83a.39.39,0,0,1-.1-.08" transform="translate(-1.93 -1.93)"/><path class="cls-14" d="M32.83,16.07H35a.53.53,0,0,0,.15.08H33l-.15-.08" transform="translate(-1.93 -1.93)"/><path class="cls-15" d="M33,16.15h2.18l.31.11H33.29L33,16.15" transform="translate(-1.93 -1.93)"/><path class="cls-10" d="M33.29,16.26h2.18c.48.13,1.09.21,1.29.26H34.58c-.2-.05-.81-.13-1.29-.26" transform="translate(-1.93 -1.93)"/></g></g></g><polygon class="cls-21" points="32.31 5.99 34.49 5.99 35.09 7.45 32.91 7.45 32.31 5.99"/><g class="cls-3"><g class="cls-48"><g class="cls-3"><path class="cls-12" d="M34.83,9.38h0" transform="translate(-1.93 -1.93)"/><path class="cls-14" d="M34.84,9.39H37a.46.46,0,0,0,0,.1H34.85a.46.46,0,0,1,0-.1" transform="translate(-1.93 -1.93)"/><path class="cls-15" d="M34.85,9.49H37c0,.35,0,1.47,0,2H34.85c0-.51,0-1.63,0-2" transform="translate(-1.93 -1.93)"/><path class="cls-10" d="M34.85,11.47H37c0,.1,0,.17,0,.22H34.83s0-.12,0-.22" transform="translate(-1.93 -1.93)"/><path class="cls-9" d="M34.83,11.69H37v.05H34.82v0a0,0,0,0,0,0,0" transform="translate(-1.93 -1.93)"/><path class="cls-8" d="M34.82,11.74H37c0,.11-.09.24-.16.39H34.66c.07-.15.12-.28.16-.39" transform="translate(-1.93 -1.93)"/><path class="cls-7" d="M34.66,12.13h2.18c-.23.49-.6,1.11-.8,1.45H33.86c.2-.34.57-1,.8-1.45" transform="translate(-1.93 -1.93)"/></g></g></g><g class="cls-3"><g class="cls-49"><g class="cls-3"><path class="cls-6" d="M35.07,18.79h2.18a4.53,4.53,0,0,0-1.74.26H33.33a4.53,4.53,0,0,1,1.74-.26" transform="translate(-1.93 -1.93)"/></g></g></g><polygon class="cls-4" points="34.63 52.09 36.81 52.09 32.93 53.52 30.75 53.52 34.63 52.09"/><polygon class="cls-4" points="35.49 51.71 37.67 51.71 36.81 52.09 34.63 52.09 35.49 51.71"/><polygon class="cls-21" points="35.65 44.28 37.83 44.28 37.93 44.56 35.75 44.56 35.65 44.28"/><polygon class="cls-4" points="36.07 51.76 38.25 51.76 37.76 51.98 35.58 51.98 36.07 51.76"/><g class="cls-3"><g class="cls-50"><g class="cls-3"><path class="cls-8" d="M38.78,16.22H41c.67,0,1.32,0,1.86,0H40.64c-.54,0-1.19,0-1.86,0" transform="translate(-1.93 -1.93)"/><path class="cls-9" d="M40.64,16.25h2.18c.68,0,1.19.05,1.39.08H42c-.2,0-.71-.06-1.39-.08" transform="translate(-1.93 -1.93)"/><path class="cls-10" d="M42,16.33h0" transform="translate(-1.93 -1.93)"/><path class="cls-15" d="M42.09,16.34h0" transform="translate(-1.93 -1.93)"/><polyline class="cls-14" points="40.19 14.42 42.37 14.42 42.37 14.43 40.2 14.43 40.19 14.42"/><polyline class="cls-12" points="40.2 14.43 42.37 14.43 42.38 14.43 40.2 14.43 40.2 14.43"/></g></g></g><g class="cls-3"><g class="cls-51"><g class="cls-3"><path class="cls-6" d="M42.23,18.76h2.18a5.49,5.49,0,0,1-2.16.33H40.08a5.46,5.46,0,0,0,2.15-.33" transform="translate(-1.93 -1.93)"/></g></g></g><g class="cls-3"><g class="cls-52"><g class="cls-3"><path class="cls-12" d="M42.12,16.35H44.3a1.54,1.54,0,0,1,.05.17H42.17a1.54,1.54,0,0,0-.05-.17" transform="translate(-1.93 -1.93)"/><path class="cls-14" d="M42.17,16.52h2.18a1.54,1.54,0,0,1,0,.3H42.21a1.54,1.54,0,0,0,0-.3" transform="translate(-1.93 -1.93)"/><path class="cls-15" d="M42.21,16.82h2.18a2.29,2.29,0,0,1,0,.37H42.21a2.29,2.29,0,0,0,0-.37" transform="translate(-1.93 -1.93)"/><path class="cls-10" d="M42.21,17.19h2.18c0,.23,0,.45,0,.69H42.16c0-.24,0-.46.05-.69" transform="translate(-1.93 -1.93)"/><path class="cls-15" d="M42.16,17.88h2.18a3.23,3.23,0,0,0,0,.44H42.16a3.23,3.23,0,0,1,0-.44" transform="translate(-1.93 -1.93)"/><path class="cls-14" d="M42.16,18.32h2.18a2.85,2.85,0,0,0,.06.39H42.22a2.85,2.85,0,0,1-.06-.39" transform="translate(-1.93 -1.93)"/><path class="cls-12" d="M42.22,18.71H44.4v.05H42.23v-.05" transform="translate(-1.93 -1.93)"/></g></g></g><polygon class="cls-4" points="42.39 47.58 44.57 47.58 38.25 51.76 36.07 51.76 42.39 47.58"/><g class="cls-3"><g class="cls-53"><g class="cls-3"><path class="cls-6" d="M49.83,43.72H52a10.18,10.18,0,0,0-1.39,1.5H48.44a10.18,10.18,0,0,1,1.39-1.5" transform="translate(-1.93 -1.93)"/><path class="cls-7" d="M48.44,45.22h2.18l0,0c-.11.19-.2.32-.27.43H48.15a4.94,4.94,0,0,0,.27-.43l0,0" transform="translate(-1.93 -1.93)"/><path class="cls-6" d="M48.15,45.67h2.18c-.31.47-.36.37-1.06,1a26.17,26.17,0,0,0-2.67,2.62H44.43a25.12,25.12,0,0,1,2.66-2.62c.71-.63.75-.53,1.06-1" transform="translate(-1.93 -1.93)"/><path class="cls-7" d="M44.43,49.29H46.6l-.08.13H44.35a.38.38,0,0,1,.08-.13" transform="translate(-1.93 -1.93)"/><path class="cls-8" d="M44.35,49.42h2.17s0,0,0,0H44.33s0,0,0,0" transform="translate(-1.93 -1.93)"/><path class="cls-9" d="M44.33,49.47h2.18a0,0,0,0,0,0,0H44.32a0,0,0,0,1,0,0" transform="translate(-1.93 -1.93)"/></g></g></g><polygon class="cls-4" points="48.39 41.58 50.57 41.58 50.09 41.8 47.91 41.8 48.39 41.58"/><polygon class="cls-7" points="48.88 41.86 51.05 41.86 50.82 42.29 48.64 42.29 48.88 41.86"/><polygon class="cls-9" points="51.06 38.23 53.24 38.23 52.01 43.45 49.83 43.45 51.06 38.23"/><polygon class="cls-21" points="50.82 37.53 53 37.53 53.24 38.23 51.06 38.23 50.82 37.53"/><path class="cls-54" d="M53,34.91c.15,1.2.27,3.79-.29,4.55l.24.7-1.24,5.22-1-1.6-.23.44-.25-.71-.49.21a10.28,10.28,0,0,0-1.41,1.52c-.6,1-.46.65-1.33,1.43-.53.48-2.68,2.36-2.77,2.83L38,53.68l-.5.23-.09-.28-.86.39-3.88,1.42c-.39.69-1.25,2.7-1.81,3-.44-.59-.42,0-.84-1.24-.21-.62-.41-1.24-.62-1.85a24.42,24.42,0,0,0-2.71-.61c-.78-.11-1.29-.83-2.09-.83a1.5,1.5,0,0,0-.45.07l-.43-.77a23.27,23.27,0,0,1-2.4-.84,6.33,6.33,0,0,1-2-1.9l-.25,0c-.75,0-.77-.71-1.52-1.23a6.49,6.49,0,0,1-1.68-1.45c-.78-.81-2.55-2.21-3-3.56l-1.07-.73-.54.16c-.29.13-.38.87-.44,1.19l-.7.42C8.52,40.63,9.14,39,8.65,35.19l.24-.11a13.65,13.65,0,0,0,2,2.05c.49.4.68.85,1,1.11s.68-.11,1,.74a1.55,1.55,0,0,1,.52-.15c.18,0,.31.1.41.38s-.55.88-.35,1.47c.3.92,1.49.77,1.91,1.91l.49-.23,1.67,1.25-.07.16a4.65,4.65,0,0,1,2,.89,5.28,5.28,0,0,0,2.11.9.69.69,0,0,0,.25,0,3.33,3.33,0,0,0,1.92,1,.61.61,0,0,0,.24,0l.14.43a.79.79,0,0,1,.33-.05c.78,0,2.32.49,2.49.89l.05-.19,1.08.36a1.5,1.5,0,0,1,.29-.16l.35-.17.1.29.37-.17c.28-.12.23-.24.39-.51-.72-2.14.16-5.79-.32-7.2l.36-.17-.39-1.62a32.59,32.59,0,0,0,0-3.84,20.69,20.69,0,0,1,.21-3.77l-.29-.86.24-4.26v-.43c-.1-.31,0-.35.06-.67-.29-.83-.48-1.5.2-1.89-.47-1.39,0-1.71-.47-3.05l-.09-.29a.48.48,0,0,0-.51-.3,3.15,3.15,0,0,0-.57.07,4.2,4.2,0,0,1-.62.07A1.27,1.27,0,0,1,27.1,19l-.5.22-3.6,0L19.8,19l-.12-2.37.49-.22c.09,0,2.64-.1,3.67-.1h.41a4.71,4.71,0,0,0,.61,0h1.59a3.4,3.4,0,0,1,1.66.22L29.2,16c.28-.13.33-.27.23-.6L29,14.3a.6.6,0,0,0-.63-.44l-.22,0c-.23-.67-.31-1.11-.79-1.12l-.14-.42a16.72,16.72,0,0,1-.35-3.11c.74-.6.88-2.36,2-2.87l1.59-.72a.46.46,0,0,1,.21,0,.54.54,0,0,1,.33.16.68.68,0,0,0,.43.17,1.48,1.48,0,0,0,.49-.12c.57.9,1.05-.21,1.59,1.39l.7.72.6,1.47a15.27,15.27,0,0,1,0,2.34,11.71,11.71,0,0,1-1,1.86l-1.4.83c.17.66,0,.79.22,1.5.13.37,1.57.52,1.9.61a18.07,18.07,0,0,1,4.2-.3,25.16,25.16,0,0,1,3.34.13c.27.8-.12,1.48.11,2.41a5.46,5.46,0,0,1-2.15.33c-.8,0-1.67-.07-2.53-.15s-1.73-.15-2.48-.15a4.53,4.53,0,0,0-1.74.26,1.5,1.5,0,0,0-.84.88c.41,1.18-.11,2.58-.08,3.35a14.44,14.44,0,0,1,.2,1.75c0,.56,0,1.06,0,1.62-.07,1.35-.31,5.47.12,6.75l-.08,2.23c.17.94-.05,3.87,0,5,0,1.39-.39,3.33.17,5l-.32,2.08a5.42,5.42,0,0,1,.63,0h.35A3.55,3.55,0,0,0,35,47.22c.76-.33,1.64-.57,2.61-1l.09.27,1.65-.54L41.26,45,45.35,43l.25-.44,2.85-1.62c.08-.36.25-.52.14-.86l-.1-.28a7.33,7.33,0,0,0-.46-.93l1.46-.67c.58-.26,1.27-.68,1.27-1.23l1.48-.67C52.15,35.36,52.59,35.46,53,34.91ZM31.87,12.69a2.87,2.87,0,0,0,1.26-2.54L32.74,9a2.16,2.16,0,0,0-1.82-1.19.92.92,0,0,0-.38.07l-.37.17A5.7,5.7,0,0,0,28.92,9l-.09-.28-.49.22.14.42.25-.1c.17.63-.12,1.31,0,1.63.57,1.7,1.11,1.34,1.55,2.08a1.31,1.31,0,0,1,.48-.12.79.79,0,0,1,.25,0,.48.48,0,0,0,.22.05.92.92,0,0,0,.41-.11l.24-.11" transform="translate(-1.93 -1.93)"/><g class="cls-3"><g class="cls-55"><g class="cls-3"><path class="cls-14" d="M53,34.91h2.18c0,.22.05.48.08.77H53.12c0-.29,0-.55-.08-.77" transform="translate(-1.93 -1.93)"/><path class="cls-15" d="M53.12,35.68H55.3a19.2,19.2,0,0,1,0,2H53.15a16.83,16.83,0,0,0,0-2" transform="translate(-1.93 -1.93)"/><path class="cls-10" d="M53.15,37.7h2.18a7.73,7.73,0,0,1-.1.9H53.05a7.73,7.73,0,0,0,.1-.9" transform="translate(-1.93 -1.93)"/><path class="cls-9" d="M53.05,38.6h2.18c0,.15-.06.29-.1.42H53c0-.13.07-.27.1-.42" transform="translate(-1.93 -1.93)"/><path class="cls-8" d="M53,39h2.18l-.09.24H52.86A1.17,1.17,0,0,0,53,39" transform="translate(-1.93 -1.93)"/><path class="cls-7" d="M52.86,39.26H55l-.09.16H52.77l.09-.16" transform="translate(-1.93 -1.93)"/><path class="cls-6" d="M52.77,39.42H55l0,0H52.75l0,0" transform="translate(-1.93 -1.93)"/></g></g></g></g></g></svg>